<?xml version="1.0" encoding="UTF-8" standalone="no"?>
<!-- Created with Inkscape (http://www.inkscape.org/) -->

<svg
   xmlns:dc="http://purl.org/dc/elements/1.1/"
   xmlns:cc="http://creativecommons.org/ns#"
   xmlns:rdf="http://www.w3.org/1999/02/22-rdf-syntax-ns#"
   xmlns:svg="http://www.w3.org/2000/svg"
   xmlns="http://www.w3.org/2000/svg"
   xmlns:sodipodi="http://sodipodi.sourceforge.net/DTD/sodipodi-0.dtd"
   xmlns:inkscape="http://www.inkscape.org/namespaces/inkscape"
   width="137.373mm"
   height="85.398407mm"
   viewBox="0 0 137.373 85.398407"
   version="1.1"
   id="svg8"
   inkscape:version="0.92.4 (5da689c313, 2019-01-14)"
   sodipodi:docname="grlight.svg">
  <defs
     id="defs2" />
  <sodipodi:namedview
     id="base"
     pagecolor="#ffffff"
     bordercolor="#666666"
     borderopacity="1.0"
     inkscape:pageopacity="0.0"
     inkscape:pageshadow="2"
     inkscape:zoom="1.4"
     inkscape:cx="294.44678"
     inkscape:cy="203.46061"
     inkscape:document-units="mm"
     inkscape:current-layer="layer1"
     showgrid="false"
     fit-margin-top="0"
     fit-margin-left="0"
     fit-margin-right="0"
     fit-margin-bottom="0"
     inkscape:window-width="1920"
     inkscape:window-height="1017"
     inkscape:window-x="-8"
     inkscape:window-y="-8"
     inkscape:window-maximized="1" />
  <metadata
     id="metadata5">
    <rdf:RDF>
      <cc:Work
         rdf:about="">
        <dc:format>image/svg+xml</dc:format>
        <dc:type
           rdf:resource="http://purl.org/dc/dcmitype/StillImage" />
        <dc:title />
      </cc:Work>
    </rdf:RDF>
  </metadata>
  <g
     inkscape:label="Layer 1"
     inkscape:groupmode="layer"
     id="layer1"
     transform="translate(-14.468367,-81.187808)">
    <g
       id="g2234-4"
       transform="matrix(0.96976483,0,0,1,232.23054,467.21948)"
       style="display:inline;opacity:1;stroke-width:1.01546931"
       inkscape:export-filename="C:\Users\Jesse\textd1260.png"
       inkscape:export-xdpi="92.299759"
       inkscape:export-ydpi="92.299759" />
    <path
       inkscape:connector-curvature="0"
       style="color:#000000;font-style:normal;font-variant:normal;font-weight:normal;font-stretch:normal;font-size:medium;line-height:normal;font-family:sans-serif;font-variant-ligatures:normal;font-variant-position:normal;font-variant-caps:normal;font-variant-numeric:normal;font-variant-alternates:normal;font-feature-settings:normal;text-indent:0;text-align:start;text-decoration:none;text-decoration-line:none;text-decoration-style:solid;text-decoration-color:#000000;letter-spacing:normal;word-spacing:normal;text-transform:none;writing-mode:lr-tb;direction:ltr;text-orientation:mixed;dominant-baseline:auto;baseline-shift:baseline;text-anchor:start;white-space:normal;shape-padding:0;clip-rule:nonzero;display:inline;overflow:visible;visibility:visible;opacity:1;isolation:auto;mix-blend-mode:normal;color-interpolation:sRGB;color-interpolation-filters:linearRGB;solid-color:#000000;solid-opacity:1;vector-effect:none;fill:#000000;fill-opacity:1;fill-rule:nonzero;stroke:none;stroke-width:4;stroke-linecap:round;stroke-linejoin:round;stroke-miterlimit:4;stroke-dasharray:none;stroke-dashoffset:0;stroke-opacity:1;paint-order:normal;color-rendering:auto;image-rendering:auto;shape-rendering:auto;text-rendering:auto;enable-background:accumulate"
       d="m 83.15409,81.18781 c -18.74484,0 -35.74147,4.61193 -48.19551,12.21269 -12.45404,7.60076 -20.49022,18.36221 -20.49022,30.48651 0,12.12429 8.03618,22.88368 20.49022,30.48444 12.45404,7.60077 29.45067,12.21476 48.19551,12.21476 18.74484,0 35.743,-4.61399 48.19706,-12.21476 12.45403,-7.60076 20.49022,-18.36015 20.49022,-30.48444 0,-12.1243 -8.03619,-22.88575 -20.49022,-30.48651 C 118.89709,85.79974 101.89893,81.18781 83.15409,81.18781 Z m -17.35656,5.42602 c -2.70373,0.97925 -5.54941,2.1403 -8.39742,3.50936 -4.93243,2.37101 -9.89169,5.37122 -14.14126,9.17254 h -9.94616 c 1.18274,-0.85566 2.42475,-1.68436 3.73,-2.48097 7.79685,-4.75845 17.67259,-8.34207 28.75484,-10.20093 z m 34.71674,0 c 11.08157,1.85899 20.95664,5.4424 28.75276,10.2004 1.30521,0.79656 2.54732,1.62537 3.73001,2.48097 h -9.94772 c -4.24904,-3.80132 -9.20728,-6.80153 -14.1397,-9.17254 -2.84744,-1.36877 -5.69211,-2.52971 -8.39535,-3.50883 z m -15.3603,0.95652 c 3.1308,2.10143 8.24754,6.02451 12.73307,11.72485 H 85.15397 Z m -3.99976,0 V 99.29417 H 68.42269 c 4.48475,-5.69936 9.60057,-9.62213 12.73152,-11.72382 z m -7.60832,0.73483 c -3.25275,2.741 -6.92851,6.4013 -10.11824,10.98899 H 49.65278 c 2.97758,-2.14736 6.2161,-3.99835 9.47952,-5.56709 5.09154,-2.44751 10.19596,-4.20217 14.41359,-5.4219 z m 19.21847,0 c 4.21694,1.2197 9.32008,2.97416 14.411,5.42137 3.26342,1.56874 6.50194,3.41974 9.47952,5.56709 H 102.8826 C 99.69304,94.70619 96.01698,91.04613 92.76436,88.30518 Z M 28.45665,103.2934 h 10.88513 c -4.25783,5.00499 -7.21922,11.20386 -7.59179,18.59111 H 18.55597 c 0.58063,-6.7351 4.07986,-13.09233 9.90068,-18.59111 z m 16.37368,0 h 5.94176 c -0.65208,0.46667 -1.29692,0.99309 -1.97611,1.61335 -2.57599,2.33807 -4.52888,5.14197 -5.72678,8.27598 l -0.008,0.0238 -0.0103,0.0217 c -0.93807,2.55246 -1.43269,5.43211 -1.58853,8.65629 h -5.7118 c 0.36633,-6.57428 3.02876,-11.9172 6.99957,-16.42739 0.65739,-0.74671 1.35508,-1.46585 2.08049,-2.16371 z m 70.98688,0 h 5.66012 c 0.72546,0.69792 1.42358,1.41698 2.08101,2.16371 3.97081,4.51019 6.63324,9.85311 6.99957,16.4274 h -13.18834 c 0.44764,-0.4948 0.85835,-1.0177 1.18442,-1.59163 1.18504,-2.02078 1.69861,-4.34176 1.69861,-6.75719 0,-3.01861 -0.7662,-5.89648 -2.51199,-8.22534 -0.55144,-0.74671 -1.20067,-1.42259 -1.9234,-2.01695 z m 11.14919,0 h 10.88667 c 5.82082,5.49878 9.32005,11.85601 9.90069,18.59111 h -13.19351 c -0.37282,-7.38725 -3.33592,-13.58612 -7.59385,-18.59111 z M 18.55597,125.8848 h 13.24415 c 0.55352,7.39431 3.61141,13.58516 7.91115,18.5911 H 28.45821 c -5.82179,-5.49862 -9.32156,-11.85553 -9.90224,-18.5911 z m 17.25114,0 h 5.62601 c 0.11415,3.32613 0.57577,6.29131 1.47898,8.92503 l 0.006,0.0243 0.008,0.0243 c 1.11214,3.10777 2.97606,5.85872 5.4808,8.03206 l 0.003,0.004 0.005,0.004 c 0.6637,0.57227 1.36596,1.09691 2.0991,1.57715 h -5.29528 c -0.731,-0.70014 -1.43586,-1.42189 -2.10169,-2.17143 -4.00313,-4.50649 -6.75946,-9.85724 -7.30963,-16.41967 z m 83.31636,0 h 11.37708 c -0.46727,5.57657 -2.52923,10.2767 -5.59397,14.32882 v -1.3849 l -3.64267,-0.25633 c -0.0782,-0.18275 -0.21598,-0.5546 -0.28991,-1.28106 -0.0387,-0.44418 -0.0937,-1.01396 -0.16433,-1.69291 -0.0394,-0.77565 -0.0957,-1.67254 -0.1695,-2.73265 -0.12663,-1.96466 -0.39751,-3.72078 -0.88625,-5.32267 -2.6e-4,0 -0.003,-1.3e-4 -0.003,-0.004 -0.16912,-0.56648 -0.3811,-1.11856 -0.62786,-1.65415 z m 15.38665,0 h 13.24364 c -0.58068,6.73557 -4.08046,13.09248 -9.90224,18.5911 h -11.25254 c 4.29973,-5.00594 7.35763,-11.19679 7.91114,-18.5911 z M 33.31579,148.47619 h 10.3358 c 4.2547,3.7963 9.18401,6.79537 14.07253,9.16636 2.90284,1.4079 5.79698,2.59477 8.53591,3.59151 -11.27004,-1.8365 -21.3122,-5.45442 -29.21734,-10.27896 -1.30414,-0.79592 -2.54506,-1.62407 -3.7269,-2.47891 z m 16.72973,0 h 13.24777 c 3.15076,4.52583 6.79178,8.14697 10.03763,10.87581 -4.08247,-1.21402 -8.96579,-2.9331 -13.86065,-5.30718 -3.23422,-1.56863 -6.45225,-3.41992 -9.42475,-5.56863 z m 18.25211,0 h 12.85658 v 11.74139 c -3.15775,-2.09405 -8.34025,-6.02247 -12.85658,-11.74139 z m 16.85634,0 h 12.85865 c -4.51728,5.72011 -9.70108,9.64869 -12.85865,11.74242 z m 17.86247,0 h 13.24829 c -2.97254,2.14874 -6.19101,4 -9.42527,5.56863 -4.89439,2.37385 -9.77752,4.09319 -13.86013,5.30718 3.24577,-2.72881 6.88645,-6.35014 10.03711,-10.87581 z m 19.6417,0 h 10.3358 c -1.1818,0.85479 -2.42281,1.68302 -3.72691,2.47891 -7.90549,4.82476 -17.94869,8.44254 -29.21992,10.27896 2.73915,-0.9968 5.63333,-2.18348 8.53643,-3.59151 4.88852,-2.37099 9.81936,-5.37006 14.0746,-9.16636 z"
       id="ellipse2024-0" />
    <g
       aria-label="GR"
       transform="scale(1.0216475,0.97881119)"
       style="font-style:normal;font-variant:normal;font-weight:bold;font-stretch:normal;font-size:55.57401657px;line-height:1;font-family:Mesmerize;-inkscape-font-specification:'Mesmerize Bold';text-align:start;letter-spacing:0px;word-spacing:0px;text-anchor:start;display:inline;opacity:1;fill:#daa720;fill-opacity:1;stroke:none;stroke-width:0.26458329"
       id="text817-9-5">
      <path
         d="m 74.427389,105.54328 0.889184,0.0556 v 14.33809 l -0.83361,-0.0556 q -0.444593,-1.77837 -0.889185,-3.05657 -0.444592,-1.2782 -0.944758,-2.50083 -0.611314,-1.5005 -1.556072,-2.83428 -0.944759,-1.33377 -2.056239,-2.27853 -1.055906,-0.94476 -2.278535,-1.5005 -1.167054,-0.55574 -2.22296,-0.55574 -1.667221,0 -3.112145,1.38935 -1.389351,1.33378 -2.111813,3.55674 -0.889184,2.66755 -1.278202,6.39101 -0.389018,3.72346 -0.389018,9.11414 0,3.94575 0.222296,7.00232 0.222296,3.001 0.666888,5.33511 0.500166,2.50083 1.722794,3.94575 1.278203,1.38936 3.056571,1.38936 0.611314,0 1.278203,-0.33345 0.666888,-0.33344 1.167054,-0.88918 v -12.00399 q 0,-4.94609 -3.890181,-4.94609 h -0.27787 v -0.83361 h 19.22861 v 0.83361 h -0.166723 q -1.778368,0 -2.7787,1.33378 -0.944759,1.2782 -0.944759,3.61231 v 14.22695 h -0.778036 q -0.166722,-2.00067 -2.111813,-2.00067 -0.778036,0 -2.000664,0.4446 l -2.167387,0.77803 q -2.056238,0.77804 -4.390347,1.22263 -2.334109,0.44459 -4.279199,0.44459 -3.278867,0 -6.113142,-1.0559 -2.834275,-1.05591 -5.057236,-3.05658 -2.945423,-2.66755 -4.279199,-6.55773 -1.278202,-3.89018 -1.278202,-9.6143 0,-5.94642 1.38935,-9.89218 1.444925,-3.94575 4.612643,-6.94675 2.445257,-2.33411 5.279532,-3.39002 2.889849,-1.0559 6.391012,-1.0559 1.889517,0 3.556737,0.33344 1.667221,0.27787 4.112477,0.94476 1.333777,0.38902 1.778369,0.50017 0.444592,0.0556 0.889184,0.0556 1.778369,0 1.945091,-1.88952 z"
         style="font-style:normal;font-variant:normal;font-weight:900;font-stretch:normal;font-family:Toledo;-inkscape-font-specification:'Toledo Heavy';fill:#daa720;fill-opacity:1;stroke-width:0.26458329"
         id="path819" />
      <path
         d="M 80.634312,146.27904 V 145.501 h 0.222296 q 0.83361,0 1.38935,-0.22229 0.611314,-0.27787 1.222629,-0.88919 0.666888,-0.66689 0.889184,-1.44492 0.27787,-0.83361 0.27787,-2.38969 v -28.56504 q 0,-4.94609 -3.723459,-4.94609 h -0.222296 v -0.83361 h 18.784017 q 2.389687,0 4.501497,0.16672 2.11181,0.16673 3.39001,0.4446 2.94543,0.61131 4.66822,3.05657 1.7228,2.38968 1.7228,6.11314 0,2.94542 -1.16706,5.00166 -1.11148,2.05624 -3.22329,3.001 -1.77837,0.72246 -4.77937,1.0559 2.50083,0.33345 4.22363,1.11148 1.77837,0.72247 2.88985,2.00067 1.16705,1.2782 1.72279,3.22329 0.55574,1.88952 0.72246,4.61264 0.11115,1.66722 0.16673,2.83428 0.11114,1.11148 0.16672,1.77837 0.16672,1.77837 0.72246,2.88985 0.83361,1.83394 3.11214,2.00066 v 0.77804 h -13.17104 q -0.55574,-0.2223 -0.88918,-0.50017 -0.33345,-0.27787 -0.55574,-0.72246 -0.2223,-0.44459 -0.33345,-1.11148 -0.11114,-0.72246 -0.22229,-1.83394 l -0.50017,-5.44626 -0.44459,-4.16805 q -0.27787,-2.7787 -1.11148,-4.39035 -0.77804,-1.61164 -1.945091,-1.66722 l -2.389683,-0.11114 v 14.22694 q 0,4.94609 3.667884,4.94609 h 0.2223 v 0.77804 z m 16.116464,-37.95706 v 15.8386 h 2.667553 q 0.55574,0 1.111481,-0.50017 0.61131,-0.50016 0.83361,-1.2782 0.33344,-0.83361 0.44459,-2.33411 0.16672,-1.55607 0.16672,-3.55674 0,-2.22296 -0.16672,-3.77903 -0.11115,-1.61165 -0.38902,-2.5564 -0.22229,-0.77804 -1.0559,-1.44493 -0.500169,-0.33344 -1.055909,-0.33344 z"
         style="font-style:normal;font-variant:normal;font-weight:900;font-stretch:normal;font-family:Toledo;-inkscape-font-specification:'Toledo Heavy';fill:#daa720;fill-opacity:1;stroke-width:0.26458329"
         id="path821" />
    </g>
  </g>
</svg>
